<?xml version="1.0" standalone="no"?>
<!DOCTYPE svg PUBLIC "-//W3C//DTD SVG 20010904//EN"
 "http://www.w3.org/TR/2001/REC-SVG-20010904/DTD/svg10.dtd">
<svg version="1.0" xmlns="http://www.w3.org/2000/svg"
 width="1219.000000pt" height="1219.000000pt" viewBox="0 0 1219.000000 1219.000000"
 preserveAspectRatio="xMidYMid meet">
<metadata>
Created by potrace 1.14, written by Peter Selinger 2001-2017
</metadata>
<g transform="translate(0.000000,1219.000000) scale(0.100000,-0.100000)"
fill="#000000" stroke="none">
<path d="M2675 8117 c-13 -29 -74 -169 -135 -312 -62 -143 -118 -273 -125
-290 -41 -91 -95 -224 -95 -234 0 -6 -4 -11 -10 -11 -5 0 -10 -7 -10 -16 0 -9
-6 -28 -14 -42 -8 -15 -67 -151 -132 -302 -64 -151 -125 -293 -134 -315 -10
-22 -53 -121 -95 -220 -43 -99 -85 -198 -95 -220 -10 -22 -59 -134 -108 -250
-211 -493 -390 -907 -420 -975 -11 -25 -32 -74 -46 -110 -15 -36 -33 -79 -41
-95 -18 -40 -164 -380 -221 -513 l-43 -102 458 0 458 0 58 138 c32 75 76 174
97 219 21 46 38 85 38 87 0 3 12 31 27 63 14 32 41 94 59 138 l33 80 850 3
850 2 -69 108 c-92 145 -187 316 -272 490 l-70 142 -479 0 c-263 0 -479 2
-479 5 0 2 11 28 24 57 13 29 44 100 69 158 25 58 53 123 63 145 17 40 36 82
68 160 9 22 21 47 25 55 5 9 33 74 64 145 48 115 88 205 117 270 63 138 96
224 94 241 -2 11 -15 79 -28 150 -14 71 -28 147 -31 169 -3 23 -7 52 -10 65
-12 61 -52 319 -60 385 -3 22 -7 58 -10 80 -8 56 -13 102 -20 160 -3 28 -8 66
-10 85 -3 19 -7 62 -10 95 -10 109 -15 149 -21 154 -3 3 -35 6 -71 7 l-65 2
-23 -51z"/>
<path d="M2994 8158 c-3 -4 -2 -20 0 -35 3 -15 7 -53 10 -83 7 -59 12 -109 21
-180 12 -89 16 -120 40 -285 6 -38 21 -128 29 -170 2 -11 7 -40 11 -65 4 -25
9 -52 10 -60 27 -136 37 -181 45 -215 5 -22 21 -92 36 -155 128 -562 355
-1158 623 -1638 497 -893 1262 -1614 2191 -2069 112 -54 172 -82 278 -129 156
-68 452 -172 642 -225 25 -7 50 -14 55 -15 20 -6 140 -36 158 -39 10 -2 26 -6
35 -9 9 -3 28 -7 42 -10 14 -3 81 -16 150 -30 69 -14 145 -28 170 -31 54 -7
96 -14 130 -20 14 -2 54 -7 90 -11 36 -3 73 -8 82 -9 54 -11 298 -20 523 -20
279 0 400 7 584 31 64 8 127 16 141 18 14 2 41 6 60 10 19 3 49 8 65 10 17 2
41 7 55 10 14 3 36 8 50 10 119 20 402 94 585 153 564 182 1204 526 1705 916
71 55 222 176 251 201 95 82 157 136 184 160 l30 27 -40 -25 c-450 -284 -725
-428 -1105 -579 -165 -65 -423 -153 -533 -181 -31 -8 -61 -17 -65 -20 -5 -3
-19 -7 -33 -10 -13 -2 -71 -16 -129 -30 -58 -13 -116 -27 -130 -29 -14 -3 -73
-14 -133 -26 -59 -11 -122 -23 -140 -25 -17 -2 -48 -7 -67 -10 -97 -16 -250
-31 -415 -42 -198 -14 -696 -7 -806 11 -13 2 -53 6 -89 10 -105 11 -172 19
-236 31 -16 3 -67 12 -114 20 -47 9 -94 17 -105 19 -46 8 -254 57 -300 70
-227 66 -510 160 -610 204 -11 5 -41 18 -67 30 -26 12 -50 21 -53 21 -2 0 -80
36 -171 81 -155 75 -330 169 -449 242 -62 38 -338 220 -345 227 -18 19 -141
110 -150 110 -5 0 -10 4 -10 8 0 4 -21 24 -47 44 -27 20 -62 49 -80 65 -18 15
-58 50 -89 78 -31 27 -70 62 -87 77 -16 16 -31 28 -32 28 -2 0 -47 45 -101 99
-54 55 -101 98 -106 95 -5 -3 -7 -1 -6 4 2 5 -42 60 -98 123 -55 63 -129 150
-164 194 -36 44 -67 82 -70 85 -3 3 -17 21 -30 40 -13 19 -27 37 -30 40 -17
16 -230 331 -230 340 0 5 -3 10 -7 12 -5 2 -15 15 -23 30 -8 14 -47 82 -86
150 -260 450 -462 964 -582 1478 -38 163 -51 225 -58 275 -3 28 -8 53 -10 56
-3 6 -17 91 -39 244 -3 23 -7 50 -9 61 -2 11 -7 57 -11 102 -4 44 -8 89 -10
99 -2 10 -4 23 -4 28 -1 12 -770 15 -777 3z"/>
</g>
</svg>
