<svg width="63" height="63" viewBox="0 0 63 63" fill="none" xmlns="http://www.w3.org/2000/svg">
<path d="M9.09423 53.9057C12.9384 57.75 19.1256 57.75 31.5 57.75C43.8742 57.75 50.0616 57.75 53.9057 53.9057C57.75 50.0616 57.75 43.8742 57.75 31.5C57.75 19.1256 57.75 12.9384 53.9057 9.09423C50.0616 5.25 43.8742 5.25 31.5 5.25C19.1256 5.25 12.9384 5.25 9.09423 9.09423C5.25 12.9384 5.25 19.1256 5.25 31.5C5.25 43.8742 5.25 50.0616 9.09423 53.9057Z" stroke="white" stroke-width="3.45084"/>
<path d="M47.25 22.3125H36.75M47.25 38.0626H36.75M47.25 45.9376H36.75M26.25 22.3125H21M21 22.3125H15.75M21 22.3125V17.0625M21 22.3125V27.5626M24.9375 38.0626L21 42.0001M21 42.0001L17.0625 45.9376M21 42.0001L17.0625 38.0626M21 42.0001L24.9375 45.9376" stroke="white" stroke-width="3.45084" stroke-linecap="round"/>
</svg>
