<svg width="25" height="25" viewBox="0 0 25 25" fill="none" xmlns="http://www.w3.org/2000/svg">
<path fill-rule="evenodd" clip-rule="evenodd" d="M24.3305 12.3621C24.3305 18.972 18.972 24.3305 12.3621 24.3305C5.75212 24.3305 0.393692 18.972 0.393692 12.3621C0.393692 5.75212 5.75212 0.393692 12.3621 0.393692C18.972 0.393692 24.3305 5.75212 24.3305 12.3621ZM17.1857 8.73527C17.5363 9.08581 17.5363 9.65416 17.1857 10.0047L11.2015 15.9889C10.851 16.3394 10.2827 16.3394 9.93211 15.9889L7.53843 13.5952C7.18788 13.2446 7.18788 12.6764 7.53843 12.3258C7.88897 11.9753 8.45732 11.9753 8.80787 12.3258L10.5668 14.0847L13.2415 11.41L15.9163 8.73527C16.2669 8.38472 16.8351 8.38472 17.1857 8.73527Z" fill="#24C247"/>
</svg>
