<svg width="21" height="21" viewBox="0 0 21 21" fill="none" xmlns="http://www.w3.org/2000/svg">
<path fill-rule="evenodd" clip-rule="evenodd" d="M20.9167 10.5002C20.9167 16.2531 16.2529 20.9168 10.5 20.9168C4.74704 20.9168 0.0833435 16.2531 0.0833435 10.5002C0.0833435 4.74719 4.74704 0.0834961 10.5 0.0834961C16.2529 0.0834961 20.9167 4.74719 20.9167 10.5002ZM14.6982 7.34357C15.0033 7.64866 15.0033 8.14333 14.6982 8.44839L9.48991 13.6567C9.1848 13.9618 8.69022 13.9618 8.38508 13.6567L6.30175 11.5734C5.99666 11.2683 5.99666 10.7737 6.30175 10.4686C6.60684 10.1635 7.10151 10.1635 7.4066 10.4686L8.93751 11.9994L11.2654 9.67152L13.5934 7.34357C13.8986 7.03848 14.3931 7.03848 14.6982 7.34357Z" fill="#24C247"/>
</svg>
