<svg width="66" height="66" viewBox="0 0 66 66" fill="none" xmlns="http://www.w3.org/2000/svg">
<path d="M41.25 24.75V28.875H28.875C26.687 28.875 24.5885 29.7442 23.0414 31.2914C21.4942 32.8385 20.625 34.937 20.625 37.125V45.375C20.625 47.563 21.4942 49.6615 23.0414 51.2086C24.5885 52.7558 26.687 53.625 28.875 53.625H49.5C51.688 53.625 53.7865 52.7558 55.3336 51.2086C56.8808 49.6615 57.75 47.563 57.75 45.375V37.125C57.75 35.6769 57.3687 34.2542 56.6447 33.0001C55.9206 31.746 54.8791 30.7046 53.625 29.9805V25.4513C58.4306 27.1508 61.875 31.7336 61.875 37.1209V45.3709C61.875 48.6529 60.5712 51.8006 58.2504 54.1213C55.9297 56.4421 52.7821 57.7459 49.5 57.7459H28.875C25.5929 57.7459 22.4453 56.4421 20.1246 54.1213C17.8038 51.8006 16.5 48.6529 16.5 45.3709V37.125C16.5 33.8429 17.8038 30.6953 20.1246 28.3746C22.4453 26.0538 25.5929 24.75 28.875 24.75H41.25Z" fill="white"/>
<path d="M24.75 41.25V37.125H37.125C39.313 37.125 41.4115 36.2558 42.9586 34.7086C44.5058 33.1615 45.375 31.063 45.375 28.875V20.625C45.375 18.437 44.5058 16.3385 42.9586 14.7914C41.4115 13.2442 39.313 12.375 37.125 12.375H16.5C14.312 12.375 12.2135 13.2442 10.6664 14.7914C9.11919 16.3385 8.25 18.437 8.25 20.625V28.875C8.25004 30.3231 8.63126 31.7458 9.35534 32.9999C10.0794 34.254 11.1209 35.2954 12.375 36.0195V40.5487C9.96157 39.6948 7.87224 38.1137 6.39474 36.023C4.91724 33.9324 4.12426 31.435 4.125 28.875V20.625C4.125 17.3429 5.42879 14.1953 7.74955 11.8746C10.0703 9.55379 13.2179 8.25 16.5 8.25H37.125C40.4071 8.25 43.5547 9.55379 45.8754 11.8746C48.1962 14.1953 49.5 17.3429 49.5 20.625V28.875C49.5 32.1571 48.1962 35.3047 45.8754 37.6254C43.5547 39.9462 40.4071 41.25 37.125 41.25H24.75Z" fill="white"/>
</svg>
