<svg width="50" height="50" viewBox="0 0 50 50" fill="none" xmlns="http://www.w3.org/2000/svg">
<path d="M17.0334 29.741C16.0887 28.7961 14.5569 28.7961 13.6121 29.741C12.6673 30.6858 12.6673 32.2174 13.6121 33.1623L17.0334 29.741ZM21.7743 37.9032L20.0637 39.6139C21.0085 40.5587 22.5401 40.5587 23.4849 39.6139L21.7743 37.9032ZM36.3878 26.7106C37.3326 25.7658 37.3326 24.2342 36.3878 23.2894C35.443 22.3445 33.9114 22.3445 32.9666 23.2894L36.3878 26.7106ZM0.0631964 15.7691C-0.238926 17.0706 0.571281 18.3707 1.8728 18.6729C3.17435 18.9748 4.47439 18.1647 4.77651 16.8632L0.0631964 15.7691ZM5.64559 2.41935V0C4.52019 0 3.54341 0.776032 3.28893 1.87229L5.64559 2.41935ZM25 4.83871C26.3361 4.83871 27.4193 3.75552 27.4193 2.41935C27.4193 1.08319 26.3361 0 25 0V4.83871ZM4.83915 16.3161C4.83915 14.98 3.75598 13.8968 2.41985 13.8968C1.08372 13.8968 0.000552124 14.98 0.000552124 16.3161H4.83915ZM2.41985 47.5806H0.000552124C0.000552124 48.9168 1.08372 50 2.41985 50V47.5806ZM47.5801 47.5806V50C48.9162 50 49.9994 48.9168 49.9994 47.5806H47.5801ZM49.9994 16.3161C49.9994 14.98 48.9162 13.8968 47.5801 13.8968C46.244 13.8968 45.1608 14.98 45.1608 16.3161H49.9994ZM2.41985 13.8968C1.08372 13.8968 0.000552124 14.98 0.000552124 16.3161C0.000552124 17.6523 1.08372 18.7355 2.41985 18.7355V13.8968ZM25 18.7355C26.3361 18.7355 27.4193 17.6523 27.4193 16.3161C27.4193 14.98 26.3361 13.8968 25 13.8968V18.7355ZM22.5807 16.3161C22.5807 17.6523 23.6639 18.7355 25 18.7355C26.3361 18.7355 27.4193 17.6523 27.4193 16.3161H22.5807ZM27.4193 2.41935C27.4193 1.08319 26.3361 0 25 0C23.6639 0 22.5807 1.08319 22.5807 2.41935H27.4193ZM25 13.8968C23.6639 13.8968 22.5807 14.98 22.5807 16.3161C22.5807 17.6523 23.6639 18.7355 25 18.7355V13.8968ZM47.5801 18.7355C48.9162 18.7355 49.9994 17.6523 49.9994 16.3161C49.9994 14.98 48.9162 13.8968 47.5801 13.8968V18.7355ZM27.4193 16.3161C27.4193 14.98 26.3361 13.8968 25 13.8968C23.6639 13.8968 22.5807 14.98 22.5807 16.3161H27.4193ZM22.5807 21.7742C22.5807 23.1103 23.6639 24.1935 25 24.1935C26.3361 24.1935 27.4193 23.1103 27.4193 21.7742H22.5807ZM25 0C23.6639 0 22.5807 1.08319 22.5807 2.41935C22.5807 3.75552 23.6639 4.83871 25 4.83871V0ZM44.3544 2.41935L46.7111 1.87229C46.4566 0.776032 45.4799 0 44.3544 0V2.41935ZM45.2234 16.8632C45.5257 18.1647 46.8256 18.9748 48.1272 18.6729C49.4288 18.3707 50.2388 17.0706 49.9369 15.7691L45.2234 16.8632ZM13.6121 33.1623L20.0637 39.6139L23.4849 36.1926L17.0334 29.741L13.6121 33.1623ZM23.4849 39.6139L36.3878 26.7106L32.9666 23.2894L20.0637 36.1926L23.4849 39.6139ZM4.77651 16.8632L8.00224 2.96642L3.28893 1.87229L0.0631964 15.7691L4.77651 16.8632ZM5.64559 4.83871H25V0H5.64559V4.83871ZM0.000552124 16.3161V47.5806H4.83915V16.3161H0.000552124ZM2.41985 50H47.5801V45.1613H2.41985V50ZM49.9994 47.5806V16.3161H45.1608V47.5806H49.9994ZM2.41985 18.7355H25V13.8968H2.41985V18.7355ZM27.4193 16.3161V2.41935H22.5807V16.3161H27.4193ZM25 18.7355H47.5801V13.8968H25V18.7355ZM22.5807 16.3161V21.7742H27.4193V16.3161H22.5807ZM25 4.83871H44.3544V0H25V4.83871ZM41.9977 2.96642L45.2234 16.8632L49.9369 15.7691L46.7111 1.87229L41.9977 2.96642Z" fill="white"/>
</svg>
