<svg width="70" height="70" viewBox="0 0 70 70" fill="none" xmlns="http://www.w3.org/2000/svg">
<path d="M17.5 23.3333H11.6667M17.5 46.6667H11.6667M17.5 35H8.75M20.4167 13.1704C24.5878 10.3783 29.6039 8.75 35 8.75C49.4976 8.75 61.25 20.5025 61.25 35C61.25 49.4976 49.4976 61.25 35 61.25C29.6039 61.25 24.5878 59.6216 20.4167 56.8298M40.8333 27.7081C39.375 27.3463 36.9982 27.333 35 27.3463M35 27.3463C34.3318 27.3508 34.7358 27.3224 33.8333 27.3463C31.4784 27.4198 29.1713 28.3986 29.1667 31.1716C29.1616 34.1256 32.0833 34.9997 35 34.9997C37.9167 34.9997 40.8333 35.674 40.8333 38.8278C40.8333 41.1979 38.4781 42.2365 35.5428 42.5804C35.3547 42.5804 35.1741 42.5807 35 42.5816M35 27.3463V23.3333M35 42.5816C33.0161 42.5897 31.848 42.6265 29.1667 42.2914M35 42.5816V46.6667" stroke="white" stroke-width="3.6771" stroke-linecap="round" stroke-linejoin="round"/>
</svg>
