<svg width="23" height="23" viewBox="0 0 23 23" fill="none" xmlns="http://www.w3.org/2000/svg">
<path d="M11.5 0C5.14805 0 0 5.14805 0 11.5C0 17.852 5.14805 23 11.5 23C17.852 23 23 17.852 23 11.5C23 5.14805 17.852 0 11.5 0ZM18.6785 18.674C17.7441 19.6084 16.6615 20.3406 15.4531 20.8482C14.2043 21.3783 12.8746 21.6434 11.5 21.6434C10.1299 21.6434 8.8002 21.3738 7.54688 20.8482C6.33848 20.3361 5.25137 19.6039 4.32148 18.674C3.38711 17.7396 2.65488 16.657 2.14727 15.4486C1.61719 14.1998 1.34766 12.8701 1.34766 11.5C1.34766 10.1299 1.61719 8.8002 2.14277 7.54688C2.65488 6.33848 3.38711 5.25137 4.31699 4.32148C5.25586 3.38711 6.33848 2.65488 7.54688 2.14277C8.8002 1.61719 10.1299 1.34766 11.5 1.34766C12.8701 1.34766 14.1998 1.61719 15.4531 2.14277C16.6615 2.65488 17.7486 3.38711 18.6785 4.31699C19.6129 5.25137 20.3451 6.33398 20.8527 7.54238C21.3828 8.79121 21.6479 10.1209 21.6479 11.4955C21.6479 12.8656 21.3783 14.1953 20.8527 15.4486C20.3406 16.657 19.6084 17.7441 18.6785 18.674Z" fill="white"/>
<path d="M13.0183 7.57842C13.481 7.57842 13.9752 7.72217 13.9752 7.72217L14.2717 5.96123C14.2717 5.96123 13.6428 5.74561 12.1424 5.74561C11.2215 5.74561 10.6869 6.096 10.2961 6.6126C9.92772 7.10225 9.91425 7.88838 9.91425 8.396V9.55049H8.72382V11.271H9.91425V17.2456H12.1424V11.271H13.9078L14.0381 9.55049H12.1424V8.20733C12.1424 7.74463 12.5557 7.57842 13.0183 7.57842Z" fill="white"/>
</svg>
