<svg width="62" height="62" viewBox="0 0 62 62" fill="none" xmlns="http://www.w3.org/2000/svg">
<g clip-path="url(#clip0_9_361)">
<path d="M58.125 54.25H3.875V58.125H58.125V54.25Z" fill="white"/>
<path d="M52.3125 21.3125C52.8264 21.3125 53.3192 21.1084 53.6825 20.745C54.0459 20.3817 54.25 19.8889 54.25 19.375V13.5625C54.2498 13.1643 54.127 12.7759 53.8982 12.45C53.6694 12.1241 53.3457 11.8767 52.9712 11.7413L31.6588 3.99128C31.2331 3.83738 30.7669 3.83738 30.3412 3.99128L9.02875 11.7413C8.65429 11.8767 8.33063 12.1241 8.10182 12.45C7.87302 12.7759 7.75017 13.1643 7.75 13.5625V19.375C7.75 19.8889 7.95413 20.3817 8.31748 20.745C8.68083 21.1084 9.17364 21.3125 9.6875 21.3125H11.625V46.5H7.75V50.375H54.25V46.5H50.375V21.3125H52.3125ZM11.625 14.9188L31 7.86628L50.375 14.9188V17.4375H11.625V14.9188ZM34.875 46.5H27.125V21.3125H34.875V46.5ZM15.5 21.3125H23.25V46.5H15.5V21.3125ZM46.5 46.5H38.75V21.3125H46.5V46.5Z" fill="white"/>
</g>
<defs>
<clipPath id="clip0_9_361">
<rect width="62" height="62" fill="white"/>
</clipPath>
</defs>
</svg>
