<svg width="215" height="37" viewBox="0 0 215 37" fill="none" xmlns="http://www.w3.org/2000/svg">
<g clip-path="url(#clip0_5_47)">
<path d="M79.1619 29.4338C78.4327 29.435 77.7105 29.2917 77.0376 29.0122C76.3647 28.7328 75.7547 28.3228 75.243 27.8062L80.834 25.4169L82.3667 24.759L88.219 22.2484C87.9995 21.0082 87.5187 19.8282 86.8082 18.7857C85.6006 17.0061 83.8015 15.7057 81.7263 15.1123C79.651 14.5189 77.4318 14.6704 75.4577 15.5403C73.4835 16.4101 71.8802 17.9428 70.9287 19.8698C69.9772 21.7967 69.7382 23.9951 70.2536 26.0797C70.7689 28.1642 72.0058 30.0021 73.7474 31.2711C75.4891 32.5401 77.6244 33.1594 79.7793 33.0205C81.9342 32.8816 83.9712 31.9933 85.5334 30.5113C87.0955 29.0293 88.0833 27.0481 88.3235 24.9148L83.8124 26.8367C83.3222 27.6259 82.6383 28.2783 81.8248 28.7326C81.0113 29.1869 80.095 29.4282 79.1619 29.4338ZM73.6406 23.9452C73.642 22.8304 73.9849 21.7424 74.6236 20.8261C75.2623 19.9097 76.1666 19.2085 77.2161 18.8156C78.2657 18.4227 79.4107 18.3569 80.4988 18.6268C81.5869 18.8967 82.5665 19.4896 83.3073 20.3266L73.6755 24.4993C73.6755 24.3261 73.6755 24.153 73.6755 23.9798" fill="white"/>
<path d="M102.484 22.9757C101.346 22.6261 100.181 22.3713 99.0003 22.2139C98.1319 22.0973 97.2752 21.9061 96.44 21.6425C96.0289 21.5288 95.6559 21.3076 95.3601 21.0019C95.1579 20.7136 95.0597 20.3658 95.0814 20.015C95.0814 19.7462 95.1444 19.4811 95.2653 19.2407C95.3862 19.0003 95.5618 18.7911 95.7781 18.6299C96.4449 18.2022 97.2335 18.0016 98.0249 18.0585C98.9105 18.011 99.7901 18.228 100.55 18.6818C100.819 18.8433 101.042 19.0688 101.2 19.3379C101.358 19.6071 101.446 19.9112 101.456 20.2227V20.6902H105.514V20.1881C105.514 19.1442 105.158 18.1312 104.504 17.314C103.802 16.4394 102.875 15.7694 101.822 15.3748C100.589 14.9006 99.2768 14.6655 97.9553 14.6823C96.6552 14.6517 95.3627 14.8874 94.1583 15.3748C93.1839 15.7742 92.3483 16.4483 91.7547 17.314C91.213 18.137 90.9282 19.1008 90.9361 20.0842C90.8874 20.8347 91.0429 21.5844 91.3861 22.2546C91.7293 22.9248 92.2477 23.4909 92.8868 23.8933C94.3694 24.7695 96.0291 25.3077 97.7463 25.4689C98.5882 25.5808 99.4207 25.7544 100.237 25.9883C100.709 26.0968 101.142 26.3301 101.491 26.6635C101.627 26.8091 101.732 26.9812 101.798 27.169C101.864 27.3567 101.89 27.5561 101.874 27.7543C101.91 28.0863 101.848 28.4214 101.697 28.7194C101.546 29.0173 101.311 29.2654 101.021 29.4338C100.177 29.9194 99.2064 30.1425 98.234 30.0744C97.4545 30.0918 96.6792 29.9565 95.9523 29.6762C95.4086 29.4752 94.9321 29.1274 94.5763 28.672C94.2677 28.2758 94.102 27.7879 94.106 27.2869V26.8021H90.0826V27.3042C90.078 28.3751 90.4065 29.4213 91.0232 30.2995C91.7308 31.2887 92.7019 32.0622 93.8274 32.533C95.214 33.1182 96.7106 33.4016 98.2165 33.3641C99.5894 33.3876 100.956 33.1768 102.257 32.7408C103.36 32.3842 104.334 31.7164 105.062 30.8189C105.755 29.9289 106.118 28.8279 106.089 27.7024C106.134 26.6034 105.761 25.5279 105.044 24.6898C104.347 23.9395 103.464 23.3843 102.484 23.0796" fill="white"/>
<path d="M113.718 7.99902H109.625V13.5914H107.535V17.314H109.625V25.8844C109.625 28.7066 110.217 30.5938 111.367 31.6846C112.632 32.7807 114.27 33.3565 115.947 33.2948H117.428V29.6588H116.696C115.917 29.6987 115.153 29.4311 114.571 28.9143C113.909 28.0829 113.602 27.0255 113.718 25.9709V17.314H117.498V13.5914H113.718V7.99902Z" fill="white"/>
<path d="M129.028 14.942C127.569 14.9438 126.132 15.2898 124.834 15.9514C123.537 16.6131 122.416 17.5716 121.563 18.748C120.711 19.9244 120.152 21.2852 119.931 22.7184C119.711 24.1516 119.836 25.6162 120.297 26.9919C120.757 28.3676 121.539 29.6151 122.579 30.6316C123.619 31.6481 124.887 32.4047 126.278 32.8392C127.67 33.2737 129.145 33.3736 130.583 33.1307C132.021 32.8878 133.38 32.3091 134.549 31.4422V33.2602H138.242V23.6163C138.108 21.2767 137.079 19.0764 135.366 17.4668C133.653 15.8571 131.385 14.9599 129.028 14.9593M129.028 29.6069C127.936 29.6069 126.868 29.285 125.96 28.6819C125.052 28.0788 124.345 27.2216 123.927 26.2187C123.509 25.2158 123.4 24.1123 123.613 23.0476C123.826 21.9829 124.352 21.005 125.124 20.2374C125.896 19.4698 126.88 18.9471 127.951 18.7353C129.022 18.5235 130.132 18.6322 131.141 19.0476C132.15 19.463 133.012 20.1665 133.619 21.0691C134.225 21.9717 134.549 23.0328 134.549 24.1184C134.549 25.574 133.967 26.97 132.932 27.9993C131.897 29.0286 130.492 29.6069 129.028 29.6069Z" fill="white"/>
<path d="M149.964 14.9766C148.148 14.9766 146.373 15.5117 144.864 16.5143C143.355 17.5169 142.178 18.942 141.483 20.6093C140.789 22.2765 140.607 24.1112 140.961 25.8811C141.315 27.6511 142.189 29.2769 143.473 30.553C144.757 31.8291 146.392 32.6981 148.173 33.0502C149.953 33.4023 151.799 33.2216 153.476 32.531C155.153 31.8403 156.587 30.6708 157.596 29.1703C158.604 27.6698 159.142 25.9057 159.142 24.101C159.142 21.6811 158.175 19.3602 156.454 17.6491C154.733 15.9379 152.398 14.9766 149.964 14.9766ZM149.964 29.5723C148.874 29.5757 147.808 29.2577 146.901 28.6586C145.994 28.0595 145.285 27.2062 144.866 26.2068C144.447 25.2074 144.335 24.1068 144.546 23.0443C144.756 21.9819 145.279 21.0054 146.048 20.2385C146.817 19.4716 147.798 18.9488 148.866 18.7362C149.934 18.5237 151.042 18.6311 152.048 19.0447C153.055 19.4582 153.916 20.1595 154.521 21.0596C155.127 21.9597 155.45 23.0182 155.45 24.101C155.452 24.8187 155.312 25.5298 155.037 26.1935C154.763 26.8572 154.359 27.4605 153.849 27.9687C153.34 28.477 152.734 28.8803 152.067 29.1555C151.4 29.4306 150.685 29.5723 149.964 29.5723Z" fill="white"/>
<path d="M126.659 12.7084C126.659 11.6176 127.042 10.977 127.669 10.977C128.304 11.0503 128.907 11.2959 129.411 11.6869C130.143 12.1559 130.981 12.4356 131.849 12.5006C133.696 12.5006 134.549 11.1328 134.514 8.57037H132.616C132.616 9.85161 132.146 10.1979 131.519 10.1979C130.93 10.1047 130.37 9.8797 129.881 9.53996C129.154 9.0526 128.316 8.75489 127.443 8.67426C125.701 8.67426 124.691 10.1979 124.778 12.743L126.659 12.7084Z" fill="white"/>
<path d="M55.7356 21.4866H63.765V25.971C62.7599 27.0078 61.5565 27.8344 60.2255 28.4023C58.8945 28.9702 57.4627 29.2679 56.0142 29.2779C54.798 29.3125 53.5875 29.0982 52.458 28.6485C51.3285 28.1988 50.3039 27.5231 49.4479 26.6635C48.5817 25.7929 47.9032 24.7558 47.454 23.6156C47.0047 22.4754 46.7942 21.2561 46.8353 20.0323C46.7988 18.7982 47.0146 17.5696 47.4696 16.4208C47.9247 15.2721 48.6095 14.2271 49.4827 13.3491C50.3488 12.4813 51.3843 11.7986 52.5254 11.3431C53.6666 10.8875 54.8894 10.6687 56.1187 10.7C57.5781 10.6585 59.0287 10.9363 60.3681 11.5137C61.7074 12.0912 62.9028 12.9542 63.8695 14.0416L66.604 11.358C65.2793 9.91827 63.6635 8.77304 61.8626 7.99726C60.0617 7.22149 58.1162 6.83269 56.1536 6.85633C54.405 6.81386 52.6658 7.12326 51.0405 7.76594C49.4152 8.40862 47.9374 9.37131 46.6959 10.5961C45.4202 11.8103 44.4163 13.2782 43.7501 14.9042C43.0838 16.5302 42.77 18.2776 42.8293 20.0323C42.7684 21.7644 43.0669 23.4905 43.7065 25.103C44.346 26.7154 45.3127 28.1796 46.5464 29.4044C47.7801 30.6291 49.2544 31.5882 50.8773 32.2218C52.5002 32.8554 54.237 33.1499 55.9794 33.087C58.169 33.1118 60.3374 32.6596 62.3324 31.7623C64.3274 30.8649 66.1005 29.5442 67.5271 27.8928V17.92H55.7356V21.4866Z" fill="white"/>
<path d="M189.954 24.7417C190.919 24.7382 191.864 25.0197 192.668 25.5503C193.472 26.0809 194.1 26.8368 194.472 27.7223C194.844 28.6079 194.943 29.5832 194.757 30.5247C194.57 31.4663 194.107 32.3317 193.426 33.0114C192.745 33.6911 191.876 34.1546 190.929 34.343C189.983 34.5315 189.001 34.4365 188.109 34.0701C187.217 33.7037 186.454 33.0823 185.917 32.2847C185.381 31.4871 185.094 30.5492 185.094 29.5896C185.094 28.3068 185.606 27.0764 186.517 26.1677C187.427 25.259 188.663 24.7463 189.954 24.7417Z" fill="white"/>
<path d="M31.3513 5.00372C28.9864 2.80229 26.0842 1.25302 22.9318 0.509299C19.7795 -0.234419 16.4865 -0.146797 13.3787 0.763491C10.2709 1.67378 7.45618 3.37516 5.21319 5.6992C2.9702 8.02324 1.37673 10.8893 0.590534 14.0137C-0.195662 17.1381 -0.147314 20.4125 0.730789 23.5126C1.60889 26.6127 3.2863 29.431 5.59694 31.6886C7.90758 33.9462 10.7713 35.5648 13.9046 36.384C17.038 37.2032 20.3322 37.1947 23.4612 36.3594C21.8757 36.1974 20.3183 35.8307 18.8282 35.2686C10.4504 32.0655 5.01619 20.8806 8.84801 12.5699C12.6798 4.25922 23.1651 3.46277 31.3513 5.00372Z" fill="white"/>
<path d="M33.9813 28.9317C35.5777 26.6015 36.6191 23.9404 37.0265 21.1504C37.4339 18.3604 37.1966 15.5149 36.3326 12.8296C36.3251 12.7954 36.3251 12.76 36.3326 12.7258C36.1236 12.1198 35.9146 11.5484 35.6533 10.9944C34.7435 8.95868 33.1135 7.32595 31.0726 6.40616C26.5266 5.57509 19.4204 5.03835 14.4216 8.13756C16.2465 7.41711 18.2305 7.18864 20.1727 7.47524C22.115 7.76185 23.9467 8.55337 25.4823 9.76972C27.018 10.9861 28.2033 12.5841 28.9181 14.402C29.633 16.22 29.852 18.1934 29.5532 20.1225C29.2544 22.0517 28.4482 23.8682 27.2163 25.3881C25.9844 26.9081 24.3704 28.0776 22.5378 28.7784C20.7051 29.4791 18.7188 29.6862 16.7797 29.3787C14.8407 29.0711 13.0178 28.2599 11.4955 27.0271C13.258 30.1399 16.0168 32.5777 19.3333 33.9527C20.7133 34.4652 22.1529 34.8026 23.6179 34.9569L24.5759 35.0608C26.4873 34.7552 28.3125 34.053 29.933 33C31.5534 31.947 32.9328 30.5667 33.9813 28.949" fill="white"/>
<path d="M179.138 13.2971H170.081L169.157 19.3743C169.798 19.2819 170.444 19.2356 171.091 19.2358C172.88 19.1996 174.647 19.6357 176.212 20.4997C177.295 21.0956 178.193 21.976 178.807 23.0447C179.421 24.1133 179.729 25.3292 179.695 26.5596C179.608 31.1651 175.915 34.6279 170.777 34.6279C168.708 34.6762 166.664 34.174 164.855 33.1736L165.657 30.7496C167.212 31.5917 168.954 32.0379 170.725 32.0481C171.446 32.1056 172.17 32.0139 172.853 31.7787C173.536 31.5436 174.163 31.1701 174.693 30.6819C175.224 30.1937 175.646 29.6015 175.935 28.9426C176.223 28.2837 176.371 27.5725 176.368 26.8539C176.368 23.8067 174.278 21.6598 169.523 21.6598C168.421 21.6762 167.322 21.7629 166.231 21.9195L167.764 10.5788H179.138V13.2971Z" fill="white"/>
<path d="M212.683 13.2105C211.885 13.1773 211.086 13.2237 210.297 13.3491C208.202 13.6384 206.262 14.6117 204.784 16.116C203.305 17.6204 202.371 19.5704 202.129 21.6598H202.233C202.909 20.814 203.774 20.1372 204.76 19.6832C205.746 19.2293 206.825 19.0108 207.911 19.0454C212.074 19.0454 215 22.0234 215 26.5943C215.044 27.6378 214.878 28.6795 214.511 29.6581C214.144 30.6368 213.584 31.5325 212.863 32.2925C212.142 33.0525 211.276 33.6613 210.315 34.0833C209.354 34.5052 208.317 34.7316 207.267 34.7491C202.25 34.7491 198.959 30.8708 198.959 24.7936C198.891 22.8629 199.207 20.9378 199.888 19.1286C200.57 17.3193 201.603 15.6613 202.93 14.2494C204.979 12.2929 207.628 11.0739 210.454 10.7866C211.22 10.6598 211.994 10.5961 212.771 10.5961L212.683 13.2105ZM211.778 26.6981C211.778 23.3392 209.862 21.3308 206.936 21.3308C205.98 21.3544 205.05 21.638 204.245 22.1509C203.44 22.6638 202.793 23.3862 202.372 24.2396C202.128 24.6668 202.002 25.1506 202.007 25.642C202.007 29.503 203.853 32.3425 207.232 32.3425C209.932 32.3079 211.778 30.0397 211.778 26.6981Z" fill="white"/>
</g>
<defs>
<clipPath id="clip0_5_47">
<rect width="215" height="37" fill="white"/>
</clipPath>
</defs>
</svg>
