<svg width="66" height="66" viewBox="0 0 66 66" fill="none" xmlns="http://www.w3.org/2000/svg">
<path d="M5.5 44C5.5 36.2219 5.5 32.3329 7.91637 29.9164C10.3327 27.5 14.2218 27.5 22 27.5H44C51.7781 27.5 55.6671 27.5 58.0836 29.9164C60.5 32.3329 60.5 36.2219 60.5 44C60.5 51.7781 60.5 55.6671 58.0836 58.0836C55.6671 60.5 51.7781 60.5 44 60.5H22C14.2218 60.5 10.3327 60.5 7.91637 58.0836C5.5 55.6671 5.5 51.7781 5.5 44Z" stroke="white" stroke-width="4.125"/>
<path d="M16.5 27.5V22C16.5 12.8873 23.8873 5.5 33 5.5C42.1127 5.5 49.5 12.8873 49.5 22V27.5" stroke="white" stroke-width="4.125" stroke-linecap="round"/>
<path d="M24.75 44C24.75 45.5188 23.5188 46.75 22 46.75C20.4812 46.75 19.25 45.5188 19.25 44C19.25 42.4812 20.4812 41.25 22 41.25C23.5188 41.25 24.75 42.4812 24.75 44Z" fill="white"/>
<path d="M35.75 44C35.75 45.5188 34.5188 46.75 33 46.75C31.4812 46.75 30.25 45.5188 30.25 44C30.25 42.4812 31.4812 41.25 33 41.25C34.5188 41.25 35.75 42.4812 35.75 44Z" fill="white"/>
<path d="M46.75 44C46.75 45.5188 45.5188 46.75 44 46.75C42.4812 46.75 41.25 45.5188 41.25 44C41.25 42.4812 42.4812 41.25 44 41.25C45.5188 41.25 46.75 42.4812 46.75 44Z" fill="white"/>
</svg>
