<svg width="105" height="105" viewBox="0 0 105 105" fill="none" xmlns="http://www.w3.org/2000/svg">
<path d="M88 14.1794C81.3548 7.92912 73.1994 3.53049 64.3414 1.41895C55.4834 -0.692589 46.2299 -0.443814 37.497 2.14065C28.7642 4.72511 20.8548 9.55562 14.552 16.1539C8.2492 22.7523 3.77154 30.8896 1.56233 39.7603C-0.646883 48.6309 -0.511027 57.9273 1.95645 66.729C4.42392 75.5308 9.13743 83.5326 15.6303 89.9423C22.1232 96.352 30.1704 100.947 38.975 103.273C47.7796 105.599 57.0364 105.575 65.8289 103.203C61.3738 102.743 56.9973 101.702 52.8101 100.106C29.2686 91.0122 13.9984 59.2566 24.7659 35.6611C35.5333 12.0656 64.9969 9.80435 88 14.1794Z" fill="white"/>
<path d="M95.9348 81.8458C100.403 75.3242 103.318 67.8765 104.458 60.0679C105.598 52.2593 104.934 44.2952 102.516 36.7799C102.495 36.6841 102.495 36.5849 102.516 36.4891C101.931 34.7931 101.346 33.194 100.615 31.6433C98.0683 25.9459 93.5059 21.3762 87.7937 18.8019C75.0703 16.4759 55.1807 14.9737 41.1898 23.6477C46.2975 21.6314 51.8504 20.9919 57.2865 21.7941C62.7227 22.5962 67.8492 24.8115 72.1474 28.2158C76.4456 31.6201 79.7629 36.0925 81.7637 41.1806C83.7644 46.2686 84.3776 51.7918 83.5412 57.1911C82.7048 62.5904 80.4484 67.6743 77.0005 71.9283C73.5525 76.1823 69.0353 79.4556 63.906 81.4168C58.7766 83.378 53.2171 83.9576 47.79 83.0969C42.3629 82.2362 37.2608 79.9658 33 76.5155C37.9332 85.2275 45.6547 92.0502 54.937 95.8987C58.7996 97.333 62.8288 98.2773 66.9292 98.7093L69.6104 99C74.9601 98.1446 80.0688 96.1794 84.6042 93.2323C89.1396 90.2852 93.0001 86.4221 95.9348 81.8943" fill="white"/>
</svg>
