<svg width="70" height="70" viewBox="0 0 70 70" fill="none" xmlns="http://www.w3.org/2000/svg">
<path d="M23.3333 23.3334C23.3333 15.0838 23.3333 10.959 25.8962 8.39619C28.459 5.83337 32.5838 5.83337 40.8333 5.83337H43.75C51.9995 5.83337 56.1243 5.83337 58.6871 8.39619C61.25 10.959 61.25 15.0838 61.25 23.3334V46.6667C61.25 54.9162 61.25 59.041 58.6871 61.6038C56.1243 64.1667 51.9995 64.1667 43.75 64.1667H40.8333C32.5838 64.1667 28.459 64.1667 25.8962 61.6038C23.3333 59.041 23.3333 54.9162 23.3333 46.6667V23.3334Z" stroke="white" stroke-width="3.45"/>
<path d="M23.3333 56.875C16.4587 56.875 13.0214 56.875 10.8857 54.7394C8.75 52.6035 8.75 49.1662 8.75 42.2917V27.7083C8.75 20.8337 8.75 17.3964 10.8857 15.2607C13.0214 13.125 16.4587 13.125 23.3333 13.125" stroke="white" stroke-width="3.45"/>
<path d="M42.2917 46.6667V23.3334M42.2917 23.3334L49.5833 30.625M42.2917 23.3334L35 30.625" stroke="white" stroke-width="3.45" stroke-linecap="round" stroke-linejoin="round"/>
</svg>
