<svg width="70" height="70" viewBox="0 0 70 70" fill="none" xmlns="http://www.w3.org/2000/svg">
<g clip-path="url(#clip0_9_358)">
<path d="M28.4375 58.3363C28.4357 56.5719 29.0159 54.8562 30.0882 53.455C31.1605 52.0539 32.6651 51.0456 34.3687 50.5864C36.0722 50.1272 37.8797 50.2427 39.5109 50.9151C41.1422 51.5875 42.5061 52.7792 43.3913 54.3054C49.4871 51.6162 51.7708 47.3958 51.7708 39.375V30.625C51.7708 18.9817 45.2054 10.9375 35 10.9375C24.7946 10.9375 18.2292 18.9846 18.2292 30.625V40.8333C18.2284 41.4133 17.9977 41.9692 17.5876 42.3793C17.1776 42.7893 16.6216 43.0201 16.0417 43.0208H13.125C10.999 43.0185 8.96063 42.1731 7.45702 40.6701C5.95341 39.167 5.10727 37.129 5.10419 35.0029L5.10419 32.0863C5.1065 29.9594 5.9522 27.9203 7.45581 26.4162C8.95943 24.912 10.9982 24.0656 13.125 24.0625H14.5192C16.7271 13.6471 24.2842 6.5625 35 6.5625C45.7158 6.5625 53.27 13.6471 55.4779 24.0625H56.8721C58.9984 24.0656 61.0367 24.9116 62.5403 26.4152C64.0438 27.9187 64.8898 29.957 64.8929 32.0833V35C64.8906 37.1265 64.0448 39.1653 62.5411 40.669C61.0374 42.1727 58.9986 43.0185 56.8721 43.0208H55.9708C55.8583 46.4754 54.6993 49.8142 52.6472 52.5955C50.5951 55.3767 47.7468 57.4692 44.4792 58.5958C44.4448 60.7231 43.5667 62.7495 42.0382 64.2294C40.5096 65.7093 38.4558 66.5213 36.3286 66.4869C34.2013 66.4525 32.1748 65.5744 30.695 64.0459C29.2151 62.5173 28.4031 60.4635 28.4375 58.3363ZM32.8125 58.3363C32.8125 59.0573 33.0263 59.7622 33.427 60.3618C33.8276 60.9613 34.397 61.4286 35.0631 61.7046C35.7293 61.9805 36.4624 62.0527 37.1696 61.912C37.8768 61.7714 38.5265 61.4241 39.0363 60.9142C39.5462 60.4044 39.8935 59.7547 40.0341 59.0475C40.1748 58.3403 40.1026 57.6072 39.8267 56.9411C39.5507 56.2749 39.0834 55.7055 38.4839 55.3049C37.8843 54.9042 37.1794 54.6904 36.4583 54.6904C35.4917 54.6912 34.5648 55.0756 33.8812 55.7591C33.1977 56.4427 32.8133 57.3696 32.8125 58.3363ZM56.1458 38.6488H56.8721C57.8393 38.6488 58.7669 38.2647 59.4511 37.5811C60.1353 36.8974 60.5201 35.9701 60.5208 35.0029V32.0863C60.5208 31.119 60.1368 30.1914 59.4532 29.5072C58.7695 28.823 57.8422 28.4383 56.875 28.4375H56.1458V38.6488ZM9.47919 32.0863V35.0029C9.48073 35.9691 9.86543 36.8952 10.5489 37.5782C11.2324 38.2611 12.1588 38.6451 13.125 38.6458H13.8542V28.4375H13.125C12.1578 28.4383 11.2305 28.823 10.5468 29.5072C9.86321 30.1914 9.47919 31.119 9.47919 32.0863Z" fill="white"/>
</g>
<defs>
<clipPath id="clip0_9_358">
<rect width="70" height="70" fill="white"/>
</clipPath>
</defs>
</svg>
