<svg width="60" height="60" viewBox="0 0 60 60" fill="none" xmlns="http://www.w3.org/2000/svg">
<path d="M5.1529 21.8688C12.0024 15.8312 20.8192 12.5 29.9498 12.5C39.0803 12.5 47.8973 15.8312 54.7468 21.8688C55.7825 22.7818 57.3623 22.6823 58.2753 21.6465C59.1883 20.6107 59.0888 19.0309 58.053 18.118C50.2903 11.2754 40.2978 7.5 29.9498 7.5C19.6018 7.5 9.60935 11.2754 1.84666 18.118C0.810899 19.0309 0.711377 20.6107 1.62437 21.6465C2.53737 22.6823 4.11715 22.7818 5.1529 21.8688Z" fill="white"/>
<path d="M14.05 30.7891C18.5422 27.0476 24.2037 24.9985 30.05 24.9985C35.8963 24.9985 41.5578 27.0476 46.05 30.7891C47.111 31.6728 48.6872 31.5291 49.571 30.4683C50.4545 29.4073 50.311 27.8311 49.25 26.9473C43.8595 22.4573 37.0658 19.9985 30.05 19.9985C23.0344 19.9985 16.2407 22.4573 10.85 26.9473C9.7891 27.8311 9.64543 29.4073 10.5291 30.4683C11.4127 31.5291 12.9891 31.6728 14.05 30.7891Z" fill="white"/>
<path d="M29.9625 37.4962C27.368 37.4962 24.8379 38.3035 22.7228 39.8062C21.5973 40.606 20.0366 40.3417 19.2369 39.216C18.4372 38.0905 18.7014 36.5297 19.827 35.7302C22.788 33.6265 26.3303 32.4962 29.9625 32.4962C33.5945 32.4962 37.1368 33.6265 40.0978 35.7302C41.2235 36.5297 41.4875 38.0905 40.688 39.216C39.8883 40.3417 38.3275 40.606 37.202 39.8062C35.087 38.3035 32.5568 37.4962 29.9625 37.4962Z" fill="white"/>
<path d="M29.95 49.9932C31.3308 49.9932 32.45 48.8739 32.45 47.4932C32.45 46.1124 31.3308 44.9932 29.95 44.9932C28.5693 44.9932 27.45 46.1124 27.45 47.4932C27.45 48.8739 28.5693 49.9932 29.95 49.9932Z" fill="white"/>
</svg>
